<svg id="visual" viewBox="0 0 1920 1080" width="1920" height="1080" xmlns="http://www.w3.org/2000/svg" xmlns:xlink="http://www.w3.org/1999/xlink" version="1.1"><path d="M1669 1080L1689 1080L1689 1031L1727 1031L1727 982L1746 982L1746 933L1669 933L1669 884L1669 884L1669 835L1689 835L1689 785L1689 785L1689 736L1727 736L1727 687L1612 687L1612 638L1708 638L1708 589L1669 589L1669 540L1727 540L1727 491L1631 491L1631 442L1746 442L1746 393L1631 393L1631 344L1765 344L1765 295L1650 295L1650 245L1708 245L1708 196L1727 196L1727 147L1746 147L1746 98L1689 98L1689 49L1669 49L1669 0L1920 0L1920 49L1920 49L1920 98L1920 98L1920 147L1920 147L1920 196L1920 196L1920 245L1920 245L1920 295L1920 295L1920 344L1920 344L1920 393L1920 393L1920 442L1920 442L1920 491L1920 491L1920 540L1920 540L1920 589L1920 589L1920 638L1920 638L1920 687L1920 687L1920 736L1920 736L1920 785L1920 785L1920 835L1920 835L1920 884L1920 884L1920 933L1920 933L1920 982L1920 982L1920 1031L1920 1031L1920 1080L1920 1080Z" fill="#5f5959"></path><path d="M1458 1080L1516 1080L1516 1031L1573 1031L1573 982L1593 982L1593 933L1516 933L1516 884L1458 884L1458 835L1477 835L1477 785L1497 785L1497 736L1535 736L1535 687L1401 687L1401 638L1516 638L1516 589L1439 589L1439 540L1573 540L1573 491L1401 491L1401 442L1593 442L1593 393L1477 393L1477 344L1516 344L1516 295L1439 295L1439 245L1516 245L1516 196L1554 196L1554 147L1593 147L1593 98L1516 98L1516 49L1497 49L1497 0L1670 0L1670 49L1690 49L1690 98L1747 98L1747 147L1728 147L1728 196L1709 196L1709 245L1651 245L1651 295L1766 295L1766 344L1632 344L1632 393L1747 393L1747 442L1632 442L1632 491L1728 491L1728 540L1670 540L1670 589L1709 589L1709 638L1613 638L1613 687L1728 687L1728 736L1690 736L1690 785L1690 785L1690 835L1670 835L1670 884L1670 884L1670 933L1747 933L1747 982L1728 982L1728 1031L1690 1031L1690 1080L1670 1080Z" fill="#4d4949"></path><path d="M1247 1080L1209 1080L1209 1031L1266 1031L1266 982L1285 982L1285 933L1228 933L1228 884L1151 884L1151 835L1170 835L1170 785L1113 785L1113 736L1151 736L1151 687L1151 687L1151 638L1132 638L1132 589L1093 589L1093 540L1266 540L1266 491L1017 491L1017 442L1189 442L1189 393L1170 393L1170 344L1285 344L1285 295L1093 295L1093 245L1170 245L1170 196L1170 196L1170 147L1285 147L1285 98L1132 98L1132 49L1170 49L1170 0L1498 0L1498 49L1517 49L1517 98L1594 98L1594 147L1555 147L1555 196L1517 196L1517 245L1440 245L1440 295L1517 295L1517 344L1478 344L1478 393L1594 393L1594 442L1402 442L1402 491L1574 491L1574 540L1440 540L1440 589L1517 589L1517 638L1402 638L1402 687L1536 687L1536 736L1498 736L1498 785L1478 785L1478 835L1459 835L1459 884L1517 884L1517 933L1594 933L1594 982L1574 982L1574 1031L1517 1031L1517 1080L1459 1080Z" fill="#3c3939"></path><path d="M1055 1080L1036 1080L1036 1031L1132 1031L1132 982L1074 982L1074 933L1036 933L1036 884L997 884L997 835L959 835L959 785L901 785L901 736L959 736L959 687L959 687L959 638L978 638L978 589L940 589L940 540L1093 540L1093 491L882 491L882 442L1036 442L1036 393L959 393L959 344L1055 344L1055 295L940 295L940 245L940 245L940 196L997 196L997 147L1093 147L1093 98L959 98L959 49L940 49L940 0L1171 0L1171 49L1133 49L1133 98L1286 98L1286 147L1171 147L1171 196L1171 196L1171 245L1094 245L1094 295L1286 295L1286 344L1171 344L1171 393L1190 393L1190 442L1018 442L1018 491L1267 491L1267 540L1094 540L1094 589L1133 589L1133 638L1152 638L1152 687L1152 687L1152 736L1114 736L1114 785L1171 785L1171 835L1152 835L1152 884L1229 884L1229 933L1286 933L1286 982L1267 982L1267 1031L1210 1031L1210 1080L1248 1080Z" fill="#2c2929"></path><path d="M652 1080L633 1080L633 1031L537 1031L537 982L364 982L364 933L498 933L498 884L613 884L613 835L498 835L498 785L537 785L537 736L575 736L575 687L479 687L479 638L345 638L345 589L517 589L517 540L537 540L537 491L498 491L498 442L556 442L556 393L421 393L421 344L652 344L652 295L556 295L556 245L402 245L402 196L556 196L556 147L556 147L556 98L421 98L421 49L345 49L345 0L941 0L941 49L960 49L960 98L1094 98L1094 147L998 147L998 196L941 196L941 245L941 245L941 295L1056 295L1056 344L960 344L960 393L1037 393L1037 442L883 442L883 491L1094 491L1094 540L941 540L941 589L979 589L979 638L960 638L960 687L960 687L960 736L902 736L902 785L960 785L960 835L998 835L998 884L1037 884L1037 933L1075 933L1075 982L1133 982L1133 1031L1037 1031L1037 1080L1056 1080Z" fill="#1c1b1b"></path><path d="M0 1080L0 1080L0 1031L0 1031L0 982L0 982L0 933L0 933L0 884L0 884L0 835L0 835L0 785L0 785L0 736L0 736L0 687L0 687L0 638L0 638L0 589L0 589L0 540L0 540L0 491L0 491L0 442L0 442L0 393L0 393L0 344L0 344L0 295L0 295L0 245L0 245L0 196L0 196L0 147L0 147L0 98L0 98L0 49L0 49L0 0L346 0L346 49L422 49L422 98L557 98L557 147L557 147L557 196L403 196L403 245L557 245L557 295L653 295L653 344L422 344L422 393L557 393L557 442L499 442L499 491L538 491L538 540L518 540L518 589L346 589L346 638L480 638L480 687L576 687L576 736L538 736L538 785L499 785L499 835L614 835L614 884L499 884L499 933L365 933L365 982L538 982L538 1031L634 1031L634 1080L653 1080Z" fill="#0b0a0a"></path></svg>