<?xml version="1.0" encoding="UTF-8" standalone="no"?>
<!DOCTYPE svg PUBLIC "-//W3C//DTD SVG 1.1//EN" "http://www.w3.org/Graphics/SVG/1.1/DTD/svg11.dtd">
<svg xmlns="http://www.w3.org/2000/svg" version="1.1" viewBox="0.00 0.00 337.00 249.00">
<g stroke-width="2.00" fill="none" stroke-linecap="butt">
<path stroke="#44000b" vector-effect="non-scaling-stroke" d="
  M 60.19 20.19
  C 54.61 26.33 56.02 31.04 56.02 38.52
  Q 56.00 116.01 55.99 193.51
  C 55.99 205.89 53.90 219.97 71.71 219.98
  Q 116.69 220.02 161.54 219.99
  A 0.26 0.26 0.0 0 0 161.73 219.55
  Q 139.81 196.61 117.62 173.95
  Q 110.62 166.80 108.55 162.62
  C 102.23 149.89 107.83 138.44 118.81 130.84
  A 0.85 0.85 0.0 0 0 118.93 129.55
  L 102.82 113.27
  A 1.61 1.58 -74.0 0 1 102.39 112.48
  C 97.02 88.94 101.09 61.51 127.52 53.07
  C 139.99 49.08 150.94 50.09 164.18 52.22
  Q 164.75 52.31 165.16 52.72
  L 180.92 68.57
  A 1.50 1.50 0.0 0 0 183.17 68.44
  C 195.07 53.30 213.28 50.63 228.67 62.88
  Q 258.39 86.51 288.08 109.82
  A 0.57 0.57 0.0 0 0 289.00 109.37
  Q 288.99 71.32 289.01 33.37
  Q 289.01 27.34 287.67 24.34
  C 284.09 16.32 277.29 16.01 268.36 16.00
  Q 170.19 15.99 72.00 16.01
  C 66.88 16.01 63.43 16.61 60.19 20.19"
/>
<path stroke="#808080" vector-effect="non-scaling-stroke" d="
  M 177.89 72.79
  C 173.66 67.79 168.88 63.10 164.08 58.69
  C 159.16 54.17 141.58 55.21 135.26 56.23
  C 109.22 60.41 101.16 85.53 106.85 108.30
  C 108.23 113.80 118.39 121.92 122.65 125.93
  A 0.65 0.65 0.0 0 0 123.53 125.94
  L 134.58 116.19
  Q 135.00 115.82 134.64 115.39
  C 132.03 112.24 122.26 103.02 121.88 99.68
  C 120.07 83.62 129.41 69.66 146.69 70.43
  C 157.12 70.90 160.33 77.31 166.40 84.05
  Q 166.91 84.62 167.45 84.07
  L 177.85 73.58
  Q 178.23 73.20 177.89 72.79"
/>
<path stroke="#808080" vector-effect="non-scaling-stroke" d="
  M 281.50 111.50
  C 263.94 96.84 245.71 81.50 226.75 68.72
  C 218.88 63.42 215.51 59.13 204.80 60.47
  Q 198.53 61.26 192.98 66.48
  Q 159.76 97.71 147.63 110.13
  Q 135.00 123.06 121.57 135.20
  Q 114.11 141.94 112.48 145.25
  C 108.66 153.04 112.49 161.32 118.18 167.32
  C 134.15 184.18 150.67 200.69 166.73 217.37
  Q 178.07 229.15 180.93 231.42
  C 195.51 243.03 216.58 246.37 233.29 237.39
  Q 238.53 234.58 246.75 226.87
  Q 266.15 208.64 284.87 189.71
  C 288.02 186.52 291.75 185.13 294.45 181.38
  C 297.00 177.86 300.05 174.11 301.96 170.73
  C 309.74 156.93 308.43 137.30 298.00 124.98
  C 292.65 118.66 286.17 115.39 281.50 111.50"
/>
<path stroke="#44000b" vector-effect="non-scaling-stroke" d="
  M 162.39 87.30
  C 159.22 82.74 154.64 76.25 148.77 75.50
  C 135.03 73.76 125.24 83.78 126.90 97.40
  C 127.34 101.02 135.21 108.57 137.80 111.54
  A 0.78 0.78 0.0 0 0 138.94 111.58
  L 162.31 88.23
  Q 162.73 87.80 162.39 87.30"
/>
<path stroke="#44000b" vector-effect="non-scaling-stroke" d="
  M 288.20 193.32
  L 262.08 219.56
  A 0.31 0.30 -67.7 0 0 262.29 220.08
  C 272.68 219.95 284.21 222.29 288.46 210.11
  C 290.00 205.69 288.86 198.77 289.04 193.69
  A 0.50 0.49 68.5 0 0 288.20 193.32"
/>
<path stroke="#44000b" vector-effect="non-scaling-stroke" d="
  M 104.9392 47.2566
  A 14.95 14.04 0.6 0 0 90.1370 33.0608
  A 14.95 14.04 0.6 0 0 75.0408 46.9434
  A 14.95 14.04 0.6 0 0 89.8430 61.1392
  A 14.95 14.04 0.6 0 0 104.9392 47.2566"
/>
<path stroke="#808080" vector-effect="non-scaling-stroke" d="
  M 102.02 48.26
  C 102.05 42.56 96.88 35.90 90.77 36.21
  C 84.24 36.55 77.23 41.67 78.30 48.84
  C 80.18 61.56 101.96 60.19 102.02 48.26"
/>
</g>
<path fill="#000000" d="
  M 253.46 227.72
  C 243.24 239.15 229.67 246.91 214.13 247.26
  Q 187.67 247.86 169.20 226.55
  C 166.92 223.92 163.42 225.00 160.77 225.00
  Q 117.31 224.99 73.86 225.01
  Q 65.98 225.01 62.34 223.58
  C 54.48 220.47 51.01 213.21 51.01 204.97
  Q 51.00 121.08 51.00 37.18
  Q 51.00 37.08 50.83 32.36
  C 50.39 19.89 58.20 10.95 70.79 10.96
  Q 169.69 11.04 268.58 10.99
  Q 277.71 10.98 281.27 12.22
  C 288.34 14.66 293.97 21.10 293.98 29.03
  Q 294.02 70.84 293.99 112.67
  A 1.48 1.47 25.3 0 0 294.33 113.61
  C 297.94 118.06 303.41 121.55 306.16 127.31
  C 313.10 141.90 314.50 158.01 306.83 172.13
  C 304.73 176.00 301.15 179.82 298.23 183.56
  C 296.87 185.29 294.03 186.45 294.01 189.09
  C 293.92 200.96 297.21 215.61 284.31 222.60
  C 277.87 226.10 268.07 225.22 260.47 224.72
  Q 256.39 224.45 253.46 227.72
  Z
  M 60.19 20.19
  C 54.61 26.33 56.02 31.04 56.02 38.52
  Q 56.00 116.01 55.99 193.51
  C 55.99 205.89 53.90 219.97 71.71 219.98
  Q 116.69 220.02 161.54 219.99
  A 0.26 0.26 0.0 0 0 161.73 219.55
  Q 139.81 196.61 117.62 173.95
  Q 110.62 166.80 108.55 162.62
  C 102.23 149.89 107.83 138.44 118.81 130.84
  A 0.85 0.85 0.0 0 0 118.93 129.55
  L 102.82 113.27
  A 1.61 1.58 -74.0 0 1 102.39 112.48
  C 97.02 88.94 101.09 61.51 127.52 53.07
  C 139.99 49.08 150.94 50.09 164.18 52.22
  Q 164.75 52.31 165.16 52.72
  L 180.92 68.57
  A 1.50 1.50 0.0 0 0 183.17 68.44
  C 195.07 53.30 213.28 50.63 228.67 62.88
  Q 258.39 86.51 288.08 109.82
  A 0.57 0.57 0.0 0 0 289.00 109.37
  Q 288.99 71.32 289.01 33.37
  Q 289.01 27.34 287.67 24.34
  C 284.09 16.32 277.29 16.01 268.36 16.00
  Q 170.19 15.99 72.00 16.01
  C 66.88 16.01 63.43 16.61 60.19 20.19
  Z
  M 177.89 72.79
  C 173.66 67.79 168.88 63.10 164.08 58.69
  C 159.16 54.17 141.58 55.21 135.26 56.23
  C 109.22 60.41 101.16 85.53 106.85 108.30
  C 108.23 113.80 118.39 121.92 122.65 125.93
  A 0.65 0.65 0.0 0 0 123.53 125.94
  L 134.58 116.19
  Q 135.00 115.82 134.64 115.39
  C 132.03 112.24 122.26 103.02 121.88 99.68
  C 120.07 83.62 129.41 69.66 146.69 70.43
  C 157.12 70.90 160.33 77.31 166.40 84.05
  Q 166.91 84.62 167.45 84.07
  L 177.85 73.58
  Q 178.23 73.20 177.89 72.79
  Z
  M 281.50 111.50
  C 263.94 96.84 245.71 81.50 226.75 68.72
  C 218.88 63.42 215.51 59.13 204.80 60.47
  Q 198.53 61.26 192.98 66.48
  Q 159.76 97.71 147.63 110.13
  Q 135.00 123.06 121.57 135.20
  Q 114.11 141.94 112.48 145.25
  C 108.66 153.04 112.49 161.32 118.18 167.32
  C 134.15 184.18 150.67 200.69 166.73 217.37
  Q 178.07 229.15 180.93 231.42
  C 195.51 243.03 216.58 246.37 233.29 237.39
  Q 238.53 234.58 246.75 226.87
  Q 266.15 208.64 284.87 189.71
  C 288.02 186.52 291.75 185.13 294.45 181.38
  C 297.00 177.86 300.05 174.11 301.96 170.73
  C 309.74 156.93 308.43 137.30 298.00 124.98
  C 292.65 118.66 286.17 115.39 281.50 111.50
  Z
  M 162.39 87.30
  C 159.22 82.74 154.64 76.25 148.77 75.50
  C 135.03 73.76 125.24 83.78 126.90 97.40
  C 127.34 101.02 135.21 108.57 137.80 111.54
  A 0.78 0.78 0.0 0 0 138.94 111.58
  L 162.31 88.23
  Q 162.73 87.80 162.39 87.30
  Z
  M 288.20 193.32
  L 262.08 219.56
  A 0.31 0.30 -67.7 0 0 262.29 220.08
  C 272.68 219.95 284.21 222.29 288.46 210.11
  C 290.00 205.69 288.86 198.77 289.04 193.69
  A 0.50 0.49 68.5 0 0 288.20 193.32
  Z"
/>
<path fill="#880015" d="
  M 60.19 20.19
  C 63.43 16.61 66.88 16.01 72.00 16.01
  Q 170.19 15.99 268.36 16.00
  C 277.29 16.01 284.09 16.32 287.67 24.34
  Q 289.01 27.34 289.01 33.37
  Q 288.99 71.32 289.00 109.37
  A 0.57 0.57 0.0 0 1 288.08 109.82
  Q 258.39 86.51 228.67 62.88
  C 213.28 50.63 195.07 53.30 183.17 68.44
  A 1.50 1.50 0.0 0 1 180.92 68.57
  L 165.16 52.72
  Q 164.75 52.31 164.18 52.22
  C 150.94 50.09 139.99 49.08 127.52 53.07
  C 101.09 61.51 97.02 88.94 102.39 112.48
  A 1.61 1.58 -74.0 0 0 102.82 113.27
  L 118.93 129.55
  A 0.85 0.85 0.0 0 1 118.81 130.84
  C 107.83 138.44 102.23 149.89 108.55 162.62
  Q 110.62 166.80 117.62 173.95
  Q 139.81 196.61 161.73 219.55
  A 0.26 0.26 0.0 0 1 161.54 219.99
  Q 116.69 220.02 71.71 219.98
  C 53.90 219.97 55.99 205.89 55.99 193.51
  Q 56.00 116.01 56.02 38.52
  C 56.02 31.04 54.61 26.33 60.19 20.19
  Z
  M 104.9392 47.2566
  A 14.95 14.04 0.6 0 0 90.1370 33.0608
  A 14.95 14.04 0.6 0 0 75.0408 46.9434
  A 14.95 14.04 0.6 0 0 89.8430 61.1392
  A 14.95 14.04 0.6 0 0 104.9392 47.2566
  Z"
/>
<path fill="#000000" d="
  M 104.9392 47.2566
  A 14.95 14.04 0.6 0 1 89.8430 61.1392
  A 14.95 14.04 0.6 0 1 75.0408 46.9434
  A 14.95 14.04 0.6 0 1 90.1370 33.0608
  A 14.95 14.04 0.6 0 1 104.9392 47.2566
  Z
  M 102.02 48.26
  C 102.05 42.56 96.88 35.90 90.77 36.21
  C 84.24 36.55 77.23 41.67 78.30 48.84
  C 80.18 61.56 101.96 60.19 102.02 48.26
  Z"
/>
<path fill="#ffffff" d="
  M 90.77 36.21
  C 96.88 35.90 102.05 42.56 102.02 48.26
  C 101.96 60.19 80.18 61.56 78.30 48.84
  C 77.23 41.67 84.24 36.55 90.77 36.21
  Z"
/>
<path fill="#ffffff" d="
  M 164.08 58.69
  C 168.88 63.10 173.66 67.79 177.89 72.79
  Q 178.23 73.20 177.85 73.58
  L 167.45 84.07
  Q 166.91 84.62 166.40 84.05
  C 160.33 77.31 157.12 70.90 146.69 70.43
  C 129.41 69.66 120.07 83.62 121.88 99.68
  C 122.26 103.02 132.03 112.24 134.64 115.39
  Q 135.00 115.82 134.58 116.19
  L 123.53 125.94
  A 0.65 0.65 0.0 0 1 122.65 125.93
  C 118.39 121.92 108.23 113.80 106.85 108.30
  C 101.16 85.53 109.22 60.41 135.26 56.23
  C 141.58 55.21 159.16 54.17 164.08 58.69
  Z"
/>
<path fill="#ffffff" d="
  M 226.75 68.72
  C 245.71 81.50 263.94 96.84 281.50 111.50
  C 286.17 115.39 292.65 118.66 298.00 124.98
  C 308.43 137.30 309.74 156.93 301.96 170.73
  C 300.05 174.11 297.00 177.86 294.45 181.38
  C 291.75 185.13 288.02 186.52 284.87 189.71
  Q 266.15 208.64 246.75 226.87
  Q 238.53 234.58 233.29 237.39
  C 216.58 246.37 195.51 243.03 180.93 231.42
  Q 178.07 229.15 166.73 217.37
  C 150.67 200.69 134.15 184.18 118.18 167.32
  C 112.49 161.32 108.66 153.04 112.48 145.25
  Q 114.11 141.94 121.57 135.20
  Q 135.00 123.06 147.63 110.13
  Q 159.76 97.71 192.98 66.48
  Q 198.53 61.26 204.80 60.47
  C 215.51 59.13 218.88 63.42 226.75 68.72
  Z"
/>
<path fill="#880015" d="
  M 148.77 75.50
  C 154.64 76.25 159.22 82.74 162.39 87.30
  Q 162.73 87.80 162.31 88.23
  L 138.94 111.58
  A 0.78 0.78 0.0 0 1 137.80 111.54
  C 135.21 108.57 127.34 101.02 126.90 97.40
  C 125.24 83.78 135.03 73.76 148.77 75.50
  Z"
/>
<path fill="#880015" d="
  M 262.08 219.56
  L 288.20 193.32
  A 0.50 0.49 68.5 0 1 289.04 193.69
  C 288.86 198.77 290.00 205.69 288.46 210.11
  C 284.21 222.29 272.68 219.95 262.29 220.08
  A 0.31 0.30 -67.7 0 1 262.08 219.56
  Z"
/>
</svg>
