<svg id="visual" viewBox="0 0 900 600" width="900" height="600" xmlns="http://www.w3.org/2000/svg" xmlns:xlink="http://www.w3.org/1999/xlink" version="1.1"><g stroke-width="1" stroke-linejoin="bevel"><path d="M434 295.9L416 254.9L417 290.7Z" fill="#1c1d1e" stroke="#1c1d1e"></path><path d="M416 254.9L396 280L417 290.7Z" fill="#1c1d1e" stroke="#1c1d1e"></path><path d="M340 226L370 292.1L396 280Z" fill="#000000" stroke="#000000"></path><path d="M396 280L371 324.9L417 290.7Z" fill="#080a0c" stroke="#080a0c"></path><path d="M417 290.7L429 338L434 295.9Z" fill="#2c2d2e" stroke="#2c2d2e"></path><path d="M371 324.9L429 338L417 290.7Z" fill="#2c2d2e" stroke="#2c2d2e"></path><path d="M370 292.1L371 324.9L396 280Z" fill="#3e3f40" stroke="#3e3f40"></path><path d="M429 338L477 327.1L434 295.9Z" fill="#38393a" stroke="#38393a"></path><path d="M434 295.9L499 219.3L416 254.9Z" fill="#000000" stroke="#000000"></path><path d="M477 327.1L508 292.9L434 295.9Z" fill="#101213" stroke="#101213"></path><path d="M366 298.3L371 324.9L370 292.1Z" fill="#3e3f40" stroke="#3e3f40"></path><path d="M508 292.9L499 219.3L434 295.9Z" fill="#38393a" stroke="#38393a"></path><path d="M340 226L342 296.9L370 292.1Z" fill="#161718" stroke="#161718"></path><path d="M370 292.1L342 296.9L366 298.3Z" fill="#080a0c" stroke="#080a0c"></path><path d="M366 298.3L345 330L371 324.9Z" fill="#38393a" stroke="#38393a"></path><path d="M345 330L389 355.1L371 324.9Z" fill="#2c2d2e" stroke="#2c2d2e"></path><path d="M371 324.9L389 355.1L429 338Z" fill="#080a0c" stroke="#080a0c"></path><path d="M506 403.4L534 364L477 327.1Z" fill="#1c1d1e" stroke="#1c1d1e"></path><path d="M508 292.9L527 271.1L499 219.3Z" fill="#323334" stroke="#323334"></path><path d="M550 327.9L520 324.1L534 364Z" fill="#101213" stroke="#101213"></path><path d="M477 327.1L520 324.1L508 292.9Z" fill="#080a0c" stroke="#080a0c"></path><path d="M508 292.9L520 324.1L527 271.1Z" fill="#161718" stroke="#161718"></path><path d="M433 154.3L340 226L416 254.9Z" fill="#161718" stroke="#161718"></path><path d="M416 254.9L340 226L396 280Z" fill="#272829" stroke="#272829"></path><path d="M342 296.9L345 330L366 298.3Z" fill="#1c1d1e" stroke="#1c1d1e"></path><path d="M571 240.1L538 253.1L578 243.4Z" fill="#161718" stroke="#161718"></path><path d="M527 271.1L538 253.1L499 219.3Z" fill="#272829" stroke="#272829"></path><path d="M519 151.6L433 154.3L499 219.3Z" fill="#38393a" stroke="#38393a"></path><path d="M499 219.3L433 154.3L416 254.9Z" fill="#1c1d1e" stroke="#1c1d1e"></path><path d="M571 240.1L545 232.3L538 253.1Z" fill="#272829" stroke="#272829"></path><path d="M538 253.1L545 232.3L499 219.3Z" fill="#101213" stroke="#101213"></path><path d="M322 212.3L320 217.6L340 226Z" fill="#323334" stroke="#323334"></path><path d="M310 222.1L308 303.1L342 296.9Z" fill="#323334" stroke="#323334"></path><path d="M342 296.9L308 303.1L345 330Z" fill="#212223" stroke="#212223"></path><path d="M334 137.4L322 212.3L340 226Z" fill="#3e3f40" stroke="#3e3f40"></path><path d="M310 222.1L342 296.9L340 226Z" fill="#323334" stroke="#323334"></path><path d="M534 364L520 324.1L477 327.1Z" fill="#1c1d1e" stroke="#1c1d1e"></path><path d="M520 324.1L550 327.9L527 271.1Z" fill="#000000" stroke="#000000"></path><path d="M322 212.3L310 222.1L320 217.6Z" fill="#272829" stroke="#272829"></path><path d="M320 217.6L310 222.1L340 226Z" fill="#101213" stroke="#101213"></path><path d="M345 330L341 369L389 355.1Z" fill="#38393a" stroke="#38393a"></path><path d="M506 403.4L477 327.1L429 338Z" fill="#101213" stroke="#101213"></path><path d="M334 362L341 369L345 330Z" fill="#212223" stroke="#212223"></path><path d="M296 317.9L334 362L345 330Z" fill="#272829" stroke="#272829"></path><path d="M409 412.6L429 338L389 355.1Z" fill="#3e3f40" stroke="#3e3f40"></path><path d="M341 369L409 412.6L389 355.1Z" fill="#1c1d1e" stroke="#1c1d1e"></path><path d="M578 243.4L538 253.1L527 271.1Z" fill="#323334" stroke="#323334"></path><path d="M557 188.6L519 151.6L499 219.3Z" fill="#212223" stroke="#212223"></path><path d="M265 274.9L296 317.9L308 303.1Z" fill="#080a0c" stroke="#080a0c"></path><path d="M308 303.1L296 317.9L345 330Z" fill="#2c2d2e" stroke="#2c2d2e"></path><path d="M506 403.4L538 369.7L534 364Z" fill="#323334" stroke="#323334"></path><path d="M534 364L538 369.7L550 327.9Z" fill="#38393a" stroke="#38393a"></path><path d="M322 212.3L292 222.3L310 222.1Z" fill="#3e3f40" stroke="#3e3f40"></path><path d="M310 222.1L265 274.9L308 303.1Z" fill="#272829" stroke="#272829"></path><path d="M275 177.6L292 222.3L322 212.3Z" fill="#38393a" stroke="#38393a"></path><path d="M557 188.6L499 219.3L545 232.3Z" fill="#323334" stroke="#323334"></path><path d="M550 327.9L578 243.4L527 271.1Z" fill="#1c1d1e" stroke="#1c1d1e"></path><path d="M591 218.6L557 188.6L545 232.3Z" fill="#161718" stroke="#161718"></path><path d="M591 218.6L578 243.4L621 244Z" fill="#080a0c" stroke="#080a0c"></path><path d="M453 437.9L506 403.4L429 338Z" fill="#323334" stroke="#323334"></path><path d="M591 218.6L545 232.3L571 240.1Z" fill="#212223" stroke="#212223"></path><path d="M580 151.3L559 170.7L557 188.6Z" fill="#000000" stroke="#000000"></path><path d="M557 188.6L559 170.7L519 151.6Z" fill="#323334" stroke="#323334"></path><path d="M372 104.6L334 137.4L433 154.3Z" fill="#272829" stroke="#272829"></path><path d="M433 154.3L334 137.4L340 226Z" fill="#3e3f40" stroke="#3e3f40"></path><path d="M409 412.6L453 437.9L429 338Z" fill="#1c1d1e" stroke="#1c1d1e"></path><path d="M226 227.3L265 274.9L292 222.3Z" fill="#080a0c" stroke="#080a0c"></path><path d="M292 222.3L265 274.9L310 222.1Z" fill="#000000" stroke="#000000"></path><path d="M459 102.4L410 106.7L433 154.3Z" fill="#080a0c" stroke="#080a0c"></path><path d="M578 243.4L591 218.6L571 240.1Z" fill="#323334" stroke="#323334"></path><path d="M621 244L578 243.4L550 327.9Z" fill="#101213" stroke="#101213"></path><path d="M473 99.4L433 154.3L519 151.6Z" fill="#38393a" stroke="#38393a"></path><path d="M473 99.4L459 102.4L433 154.3Z" fill="#161718" stroke="#161718"></path><path d="M453 437.9L508 431.3L506 403.4Z" fill="#2c2d2e" stroke="#2c2d2e"></path><path d="M506 403.4L576 423.7L538 369.7Z" fill="#1c1d1e" stroke="#1c1d1e"></path><path d="M502 66.7L473 99.4L519 151.6Z" fill="#272829" stroke="#272829"></path><path d="M408 82.9L372 104.6L410 106.7Z" fill="#3e3f40" stroke="#3e3f40"></path><path d="M370 100.7L372 104.6L408 82.9Z" fill="#2c2d2e" stroke="#2c2d2e"></path><path d="M410 106.7L372 104.6L433 154.3Z" fill="#1c1d1e" stroke="#1c1d1e"></path><path d="M314 72.7L306 145.6L334 137.4Z" fill="#323334" stroke="#323334"></path><path d="M334 137.4L306 145.6L322 212.3Z" fill="#38393a" stroke="#38393a"></path><path d="M354 441.6L389 447.7L409 412.6Z" fill="#38393a" stroke="#38393a"></path><path d="M409 412.6L432 453.4L453 437.9Z" fill="#000000" stroke="#000000"></path><path d="M453 437.9L493 481.1L508 431.3Z" fill="#1c1d1e" stroke="#1c1d1e"></path><path d="M354 441.6L409 412.6L341 369Z" fill="#101213" stroke="#101213"></path><path d="M354 441.6L341 369L261 387.7Z" fill="#161718" stroke="#161718"></path><path d="M341 369L334 362L261 387.7Z" fill="#212223" stroke="#212223"></path><path d="M389 447.7L432 453.4L409 412.6Z" fill="#323334" stroke="#323334"></path><path d="M425 83.4L410 106.7L459 102.4Z" fill="#38393a" stroke="#38393a"></path><path d="M372 104.6L370 100.7L334 137.4Z" fill="#323334" stroke="#323334"></path><path d="M306 145.6L275 177.6L322 212.3Z" fill="#101213" stroke="#101213"></path><path d="M258 371.9L334 362L296 317.9Z" fill="#1c1d1e" stroke="#1c1d1e"></path><path d="M413 495.4L439 459.6L432 453.4Z" fill="#080a0c" stroke="#080a0c"></path><path d="M432 453.4L439 459.6L453 437.9Z" fill="#323334" stroke="#323334"></path><path d="M413 495.4L432 453.4L389 447.7Z" fill="#161718" stroke="#161718"></path><path d="M485 41.7L425 83.4L459 102.4Z" fill="#323334" stroke="#323334"></path><path d="M425 83.4L408 82.9L410 106.7Z" fill="#38393a" stroke="#38393a"></path><path d="M651 337.7L550 327.9L538 369.7Z" fill="#272829" stroke="#272829"></path><path d="M657 324L621 244L550 327.9Z" fill="#3e3f40" stroke="#3e3f40"></path><path d="M591 218.6L580 151.3L557 188.6Z" fill="#161718" stroke="#161718"></path><path d="M637 176.4L580 151.3L591 218.6Z" fill="#101213" stroke="#101213"></path><path d="M559 170.7L578 139.4L519 151.6Z" fill="#080a0c" stroke="#080a0c"></path><path d="M648 135.9L578 139.4L580 151.3Z" fill="#101213" stroke="#101213"></path><path d="M580 151.3L578 139.4L559 170.7Z" fill="#272829" stroke="#272829"></path><path d="M234 312L258 371.9L296 317.9Z" fill="#272829" stroke="#272829"></path><path d="M226 227.3L234 312L265 274.9Z" fill="#323334" stroke="#323334"></path><path d="M265 274.9L234 312L296 317.9Z" fill="#101213" stroke="#101213"></path><path d="M485 41.7L408 69.6L425 83.4Z" fill="#161718" stroke="#161718"></path><path d="M425 83.4L408 69.6L408 82.9Z" fill="#323334" stroke="#323334"></path><path d="M408 82.9L408 69.6L370 100.7Z" fill="#212223" stroke="#212223"></path><path d="M233 125.6L239 164.3L306 145.6Z" fill="#000000" stroke="#000000"></path><path d="M485 41.7L459 102.4L473 99.4Z" fill="#1c1d1e" stroke="#1c1d1e"></path><path d="M217 431.3L261 387.7L258 371.9Z" fill="#323334" stroke="#323334"></path><path d="M258 371.9L261 387.7L334 362Z" fill="#080a0c" stroke="#080a0c"></path><path d="M544 512.3L576 423.7L508 431.3Z" fill="#212223" stroke="#212223"></path><path d="M508 431.3L576 423.7L506 403.4Z" fill="#3e3f40" stroke="#3e3f40"></path><path d="M360 472.7L375 474.4L354 441.6Z" fill="#38393a" stroke="#38393a"></path><path d="M354 441.6L375 474.4L389 447.7Z" fill="#2c2d2e" stroke="#2c2d2e"></path><path d="M239 164.3L226 227.3L275 177.6Z" fill="#2c2d2e" stroke="#2c2d2e"></path><path d="M275 177.6L226 227.3L292 222.3Z" fill="#161718" stroke="#161718"></path><path d="M336 481.3L360 472.7L354 441.6Z" fill="#080a0c" stroke="#080a0c"></path><path d="M360 472.7L366 476.7L375 474.4Z" fill="#38393a" stroke="#38393a"></path><path d="M486 483.4L453 437.9L439 459.6Z" fill="#101213" stroke="#101213"></path><path d="M580 82.4L502 66.7L519 151.6Z" fill="#161718" stroke="#161718"></path><path d="M486 483.4L439 459.6L450 514.1Z" fill="#080a0c" stroke="#080a0c"></path><path d="M486 483.4L493 481.1L453 437.9Z" fill="#161718" stroke="#161718"></path><path d="M413 495.4L389 447.7L375 474.4Z" fill="#1c1d1e" stroke="#1c1d1e"></path><path d="M314 72.7L334 137.4L370 100.7Z" fill="#3e3f40" stroke="#3e3f40"></path><path d="M306 145.6L239 164.3L275 177.6Z" fill="#38393a" stroke="#38393a"></path><path d="M390 514.1L413 495.4L375 474.4Z" fill="#272829" stroke="#272829"></path><path d="M621 244L637 176.4L591 218.6Z" fill="#161718" stroke="#161718"></path><path d="M499 36.6L485 41.7L502 66.7Z" fill="#38393a" stroke="#38393a"></path><path d="M261 387.7L312 466.6L354 441.6Z" fill="#3e3f40" stroke="#3e3f40"></path><path d="M360 472.7L336 481.3L366 476.7Z" fill="#101213" stroke="#101213"></path><path d="M366 476.7L390 514.1L375 474.4Z" fill="#38393a" stroke="#38393a"></path><path d="M576 423.7L651 337.7L538 369.7Z" fill="#1c1d1e" stroke="#1c1d1e"></path><path d="M621 244L670 242.1L637 176.4Z" fill="#161718" stroke="#161718"></path><path d="M312 466.6L336 481.3L354 441.6Z" fill="#000000" stroke="#000000"></path><path d="M651 337.7L657 324L550 327.9Z" fill="#272829" stroke="#272829"></path><path d="M370 6.9L314 72.7L370 100.7Z" fill="#161718" stroke="#161718"></path><path d="M580 82.4L519 151.6L578 139.4Z" fill="#38393a" stroke="#38393a"></path><path d="M502 66.7L485 41.7L473 99.4Z" fill="#101213" stroke="#101213"></path><path d="M408 69.6L370 6.9L370 100.7Z" fill="#000000" stroke="#000000"></path><path d="M657 324L670 242.1L621 244Z" fill="#000000" stroke="#000000"></path><path d="M648 135.9L580 82.4L578 139.4Z" fill="#101213" stroke="#101213"></path><path d="M390 514.1L450 514.1L413 495.4Z" fill="#080a0c" stroke="#080a0c"></path><path d="M413 495.4L450 514.1L439 459.6Z" fill="#1c1d1e" stroke="#1c1d1e"></path><path d="M486 483.4L490 509.6L493 481.1Z" fill="#1c1d1e" stroke="#1c1d1e"></path><path d="M493 481.1L544 512.3L508 431.3Z" fill="#101213" stroke="#101213"></path><path d="M450 514.1L490 509.6L486 483.4Z" fill="#080a0c" stroke="#080a0c"></path><path d="M520 37.6L499 36.6L502 66.7Z" fill="#38393a" stroke="#38393a"></path><path d="M429 -6.1L370 6.9L408 69.6Z" fill="#000000" stroke="#000000"></path><path d="M336 481.3L390 514.1L366 476.7Z" fill="#3e3f40" stroke="#3e3f40"></path><path d="M243 96.4L233 125.6L306 145.6Z" fill="#1c1d1e" stroke="#1c1d1e"></path><path d="M170 219L176 251.1L226 227.3Z" fill="#323334" stroke="#323334"></path><path d="M439 557.3L454 519.6L450 514.1Z" fill="#212223" stroke="#212223"></path><path d="M450 514.1L454 519.6L490 509.6Z" fill="#212223" stroke="#212223"></path><path d="M556 39.7L520 37.6L502 66.7Z" fill="#38393a" stroke="#38393a"></path><path d="M667 151.3L648 135.9L637 176.4Z" fill="#38393a" stroke="#38393a"></path><path d="M637 176.4L648 135.9L580 151.3Z" fill="#000000" stroke="#000000"></path><path d="M576 423.7L667 373L651 337.7Z" fill="#000000" stroke="#000000"></path><path d="M651 337.7L681 358.9L657 324Z" fill="#3e3f40" stroke="#3e3f40"></path><path d="M657 324L698 265.3L670 242.1Z" fill="#2c2d2e" stroke="#2c2d2e"></path><path d="M660 462.1L667 373L576 423.7Z" fill="#38393a" stroke="#38393a"></path><path d="M251 487.3L303 493.6L312 466.6Z" fill="#38393a" stroke="#38393a"></path><path d="M312 466.6L303 493.6L336 481.3Z" fill="#1c1d1e" stroke="#1c1d1e"></path><path d="M336 481.3L293 526.3L390 514.1Z" fill="#323334" stroke="#323334"></path><path d="M181 188.4L226 227.3L183 181.6Z" fill="#1c1d1e" stroke="#1c1d1e"></path><path d="M226 227.3L176 251.1L234 312Z" fill="#161718" stroke="#161718"></path><path d="M234 312L175 345L258 371.9Z" fill="#212223" stroke="#212223"></path><path d="M261 387.7L251 487.3L312 466.6Z" fill="#1c1d1e" stroke="#1c1d1e"></path><path d="M255 78.9L243 96.4L306 145.6Z" fill="#272829" stroke="#272829"></path><path d="M233 125.6L196 155.3L239 164.3Z" fill="#161718" stroke="#161718"></path><path d="M293 33.7L255 78.9L314 72.7Z" fill="#272829" stroke="#272829"></path><path d="M314 72.7L255 78.9L306 145.6Z" fill="#323334" stroke="#323334"></path><path d="M196 155.3L233 125.6L155 127.9Z" fill="#2c2d2e" stroke="#2c2d2e"></path><path d="M147 151.6L196 155.3L155 127.9Z" fill="#1c1d1e" stroke="#1c1d1e"></path><path d="M624 56.7L556 39.7L580 82.4Z" fill="#1c1d1e" stroke="#1c1d1e"></path><path d="M580 82.4L556 39.7L502 66.7Z" fill="#323334" stroke="#323334"></path><path d="M667 373L681 358.9L651 337.7Z" fill="#080a0c" stroke="#080a0c"></path><path d="M183 181.6L226 227.3L239 164.3Z" fill="#38393a" stroke="#38393a"></path><path d="M695 204.6L667 151.3L637 176.4Z" fill="#1c1d1e" stroke="#1c1d1e"></path><path d="M648 135.9L632 65.9L580 82.4Z" fill="#212223" stroke="#212223"></path><path d="M695 204.6L637 176.4L670 242.1Z" fill="#272829" stroke="#272829"></path><path d="M514 600L544 512.3L490 509.6Z" fill="#38393a" stroke="#38393a"></path><path d="M490 509.6L544 512.3L493 481.1Z" fill="#212223" stroke="#212223"></path><path d="M700 375L709 342.7L681 358.9Z" fill="#3e3f40" stroke="#3e3f40"></path><path d="M146 294.3L167 277.1L125 262Z" fill="#161718" stroke="#161718"></path><path d="M176 251.1L167 277.1L234 312Z" fill="#272829" stroke="#272829"></path><path d="M196 155.3L183 181.6L239 164.3Z" fill="#212223" stroke="#212223"></path><path d="M709 317.1L698 265.3L657 324Z" fill="#2c2d2e" stroke="#2c2d2e"></path><path d="M160 303.1L175 345L234 312Z" fill="#080a0c" stroke="#080a0c"></path><path d="M125 262L170 219L126 216.1Z" fill="#272829" stroke="#272829"></path><path d="M181 188.4L170 219L226 227.3Z" fill="#2c2d2e" stroke="#2c2d2e"></path><path d="M170 369.9L217 431.3L258 371.9Z" fill="#101213" stroke="#101213"></path><path d="M709 254.9L695 204.6L670 242.1Z" fill="#2c2d2e" stroke="#2c2d2e"></path><path d="M608 485.6L619 470.1L576 423.7Z" fill="#3e3f40" stroke="#3e3f40"></path><path d="M429 -6.1L485 41.7L496 0Z" fill="#1c1d1e" stroke="#1c1d1e"></path><path d="M429 -6.1L408 69.6L485 41.7Z" fill="#1c1d1e" stroke="#1c1d1e"></path><path d="M485 41.7L499 36.6L496 0Z" fill="#323334" stroke="#323334"></path><path d="M167 277.1L160 303.1L234 312Z" fill="#000000" stroke="#000000"></path><path d="M146 294.3L160 303.1L167 277.1Z" fill="#2c2d2e" stroke="#2c2d2e"></path><path d="M160 303.1L168 344.7L175 345Z" fill="#38393a" stroke="#38393a"></path><path d="M175 345L170 369.9L258 371.9Z" fill="#000000" stroke="#000000"></path><path d="M332 0L293 33.7L314 72.7Z" fill="#1c1d1e" stroke="#1c1d1e"></path><path d="M544 512.3L608 485.6L576 423.7Z" fill="#000000" stroke="#000000"></path><path d="M439 557.3L466 547.4L454 519.6Z" fill="#2c2d2e" stroke="#2c2d2e"></path><path d="M454 519.6L466 547.4L490 509.6Z" fill="#212223" stroke="#212223"></path><path d="M544 512.3L613 503.3L608 485.6Z" fill="#161718" stroke="#161718"></path><path d="M439 557.3L450 514.1L390 514.1Z" fill="#000000" stroke="#000000"></path><path d="M722 288.9L709 254.9L698 265.3Z" fill="#2c2d2e" stroke="#2c2d2e"></path><path d="M698 265.3L709 254.9L670 242.1Z" fill="#38393a" stroke="#38393a"></path><path d="M496 0L499 36.6L502 0Z" fill="#080a0c" stroke="#080a0c"></path><path d="M168 344.7L170 369.9L175 345Z" fill="#161718" stroke="#161718"></path><path d="M140 351.6L170 369.9L168 344.7Z" fill="#272829" stroke="#272829"></path><path d="M502 0L499 36.6L520 37.6Z" fill="#3e3f40" stroke="#3e3f40"></path><path d="M709 342.7L657 324L681 358.9Z" fill="#272829" stroke="#272829"></path><path d="M709 342.7L709 317.1L657 324Z" fill="#212223" stroke="#212223"></path><path d="M217 431.3L251 487.3L261 387.7Z" fill="#161718" stroke="#161718"></path><path d="M439 600L439 557.3L377 600Z" fill="#38393a" stroke="#38393a"></path><path d="M217 490.4L251 487.3L217 431.3Z" fill="#080a0c" stroke="#080a0c"></path><path d="M547 0L502 0L520 37.6Z" fill="#080a0c" stroke="#080a0c"></path><path d="M496 0L486 -38.1L429 -6.1Z" fill="#38393a" stroke="#38393a"></path><path d="M429 -6.1L354 0L370 6.9Z" fill="#080a0c" stroke="#080a0c"></path><path d="M370 6.9L346 0L314 72.7Z" fill="#101213" stroke="#101213"></path><path d="M680 99.4L660 104.4L667 151.3Z" fill="#2c2d2e" stroke="#2c2d2e"></path><path d="M667 151.3L660 104.4L648 135.9Z" fill="#1c1d1e" stroke="#1c1d1e"></path><path d="M556 39.7L547 0L520 37.6Z" fill="#3e3f40" stroke="#3e3f40"></path><path d="M608 485.6L629 476.1L619 470.1Z" fill="#272829" stroke="#272829"></path><path d="M619 470.1L660 462.1L576 423.7Z" fill="#272829" stroke="#272829"></path><path d="M293 526.3L336 481.3L303 493.6Z" fill="#2c2d2e" stroke="#2c2d2e"></path><path d="M245 -49.1L346 0L354 0Z" fill="#3e3f40" stroke="#3e3f40"></path><path d="M354 0L346 0L370 6.9Z" fill="#38393a" stroke="#38393a"></path><path d="M700 375L681 358.9L667 373Z" fill="#38393a" stroke="#38393a"></path><path d="M125 262L167 277.1L176 251.1Z" fill="#101213" stroke="#101213"></path><path d="M160 303.1L140 351.6L168 344.7Z" fill="#272829" stroke="#272829"></path><path d="M670 462.7L700 375L667 373Z" fill="#2c2d2e" stroke="#2c2d2e"></path><path d="M660 104.4L632 65.9L648 135.9Z" fill="#080a0c" stroke="#080a0c"></path><path d="M632 65.9L624 56.7L580 82.4Z" fill="#3e3f40" stroke="#3e3f40"></path><path d="M278 520.6L293 526.3L303 493.6Z" fill="#161718" stroke="#161718"></path><path d="M245 -49.1L332 0L346 0Z" fill="#1c1d1e" stroke="#1c1d1e"></path><path d="M346 0L332 0L314 72.7Z" fill="#2c2d2e" stroke="#2c2d2e"></path><path d="M786 290.9L722 288.9L709 317.1Z" fill="#161718" stroke="#161718"></path><path d="M709 317.1L722 288.9L698 265.3Z" fill="#2c2d2e" stroke="#2c2d2e"></path><path d="M760 224.4L726 136.6L695 204.6Z" fill="#272829" stroke="#272829"></path><path d="M251 487.3L278 520.6L303 493.6Z" fill="#000000" stroke="#000000"></path><path d="M608 485.6L613 503.3L629 476.1Z" fill="#000000" stroke="#000000"></path><path d="M755 414.4L708 374.4L700 375Z" fill="#212223" stroke="#212223"></path><path d="M605 564.3L613 503.3L544 512.3Z" fill="#101213" stroke="#101213"></path><path d="M514 600L490 509.6L466 547.4Z" fill="#101213" stroke="#101213"></path><path d="M660 462.1L619 470.1L629 476.1Z" fill="#38393a" stroke="#38393a"></path><path d="M700 375L716 350.6L709 342.7Z" fill="#161718" stroke="#161718"></path><path d="M709 342.7L716 350.6L709 317.1Z" fill="#101213" stroke="#101213"></path><path d="M708 374.4L716 350.6L700 375Z" fill="#3e3f40" stroke="#3e3f40"></path><path d="M308 2.7L280 18.9L293 33.7Z" fill="#080a0c" stroke="#080a0c"></path><path d="M293 33.7L258 16.9L255 78.9Z" fill="#38393a" stroke="#38393a"></path><path d="M255 78.9L229 0L243 96.4Z" fill="#101213" stroke="#101213"></path><path d="M587 0L547 0L556 39.7Z" fill="#101213" stroke="#101213"></path><path d="M502 0L486 -38.1L496 0Z" fill="#323334" stroke="#323334"></path><path d="M332 0L308 2.7L293 33.7Z" fill="#101213" stroke="#101213"></path><path d="M652 478.3L660 462.1L629 476.1Z" fill="#3e3f40" stroke="#3e3f40"></path><path d="M613 503.3L652 478.3L629 476.1Z" fill="#000000" stroke="#000000"></path><path d="M660 462.1L670 462.7L667 373Z" fill="#212223" stroke="#212223"></path><path d="M123 334.9L140 351.6L160 303.1Z" fill="#3e3f40" stroke="#3e3f40"></path><path d="M170 369.9L161 407.7L217 431.3Z" fill="#1c1d1e" stroke="#1c1d1e"></path><path d="M214 516.6L278 534.4L278 520.6Z" fill="#101213" stroke="#101213"></path><path d="M726 136.6L680 99.4L667 151.3Z" fill="#1c1d1e" stroke="#1c1d1e"></path><path d="M660 104.4L680 99.4L632 65.9Z" fill="#272829" stroke="#272829"></path><path d="M680 0L631 0L624 56.7Z" fill="#000000" stroke="#000000"></path><path d="M726 136.6L667 151.3L695 204.6Z" fill="#323334" stroke="#323334"></path><path d="M126 376.4L161 407.7L170 369.9Z" fill="#2c2d2e" stroke="#2c2d2e"></path><path d="M214 516.6L278 520.6L251 487.3Z" fill="#272829" stroke="#272829"></path><path d="M278 520.6L278 534.4L293 526.3Z" fill="#000000" stroke="#000000"></path><path d="M377 600L439 557.3L390 514.1Z" fill="#080a0c" stroke="#080a0c"></path><path d="M665 483.1L670 462.7L660 462.1Z" fill="#38393a" stroke="#38393a"></path><path d="M149 469.4L217 490.4L217 431.3Z" fill="#080a0c" stroke="#080a0c"></path><path d="M126 216.1L170 219L181 188.4Z" fill="#101213" stroke="#101213"></path><path d="M170 219L125 262L176 251.1Z" fill="#161718" stroke="#161718"></path><path d="M146 294.3L122 320.7L160 303.1Z" fill="#2c2d2e" stroke="#2c2d2e"></path><path d="M147 151.6L181 188.4L183 181.6Z" fill="#161718" stroke="#161718"></path><path d="M147 151.6L183 181.6L196 155.3Z" fill="#101213" stroke="#101213"></path><path d="M237 0L258 16.9L245 -49.1Z" fill="#272829" stroke="#272829"></path><path d="M280 18.9L258 16.9L293 33.7Z" fill="#000000" stroke="#000000"></path><path d="M155 127.9L233 125.6L243 96.4Z" fill="#38393a" stroke="#38393a"></path><path d="M120 175.4L126 216.1L181 188.4Z" fill="#272829" stroke="#272829"></path><path d="M150 14.7L155 127.9L243 96.4Z" fill="#080a0c" stroke="#080a0c"></path><path d="M631 0L587 0L624 56.7Z" fill="#1c1d1e" stroke="#1c1d1e"></path><path d="M624 56.7L587 0L556 39.7Z" fill="#000000" stroke="#000000"></path><path d="M547 0L486 -38.1L502 0Z" fill="#1c1d1e" stroke="#1c1d1e"></path><path d="M125 262L122 320.7L146 294.3Z" fill="#212223" stroke="#212223"></path><path d="M126 376.4L148 426.3L161 407.7Z" fill="#212223" stroke="#212223"></path><path d="M54 267.1L122 320.7L125 262Z" fill="#080a0c" stroke="#080a0c"></path><path d="M613 503.3L665 483.1L652 478.3Z" fill="#080a0c" stroke="#080a0c"></path><path d="M652 478.3L665 483.1L660 462.1Z" fill="#161718" stroke="#161718"></path><path d="M670 462.7L755 414.4L700 375Z" fill="#38393a" stroke="#38393a"></path><path d="M122 320.7L123 334.9L160 303.1Z" fill="#38393a" stroke="#38393a"></path><path d="M655 -49.1L486 -38.1L547 0Z" fill="#3e3f40" stroke="#3e3f40"></path><path d="M429 -6.1L486 -38.1L354 0Z" fill="#323334" stroke="#323334"></path><path d="M245 -49.1L280 18.9L308 2.7Z" fill="#2c2d2e" stroke="#2c2d2e"></path><path d="M126 376.4L170 369.9L140 351.6Z" fill="#2c2d2e" stroke="#2c2d2e"></path><path d="M161 407.7L148 426.3L217 431.3Z" fill="#000000" stroke="#000000"></path><path d="M123 334.9L126 376.4L140 351.6Z" fill="#272829" stroke="#272829"></path><path d="M760 224.4L695 204.6L709 254.9Z" fill="#101213" stroke="#101213"></path><path d="M680 0L624 56.7L632 65.9Z" fill="#000000" stroke="#000000"></path><path d="M131 134.4L120 175.4L147 151.6Z" fill="#3e3f40" stroke="#3e3f40"></path><path d="M147 151.6L120 175.4L181 188.4Z" fill="#272829" stroke="#272829"></path><path d="M126 216.1L97 236L125 262Z" fill="#2c2d2e" stroke="#2c2d2e"></path><path d="M173 518.6L214 516.6L217 490.4Z" fill="#3e3f40" stroke="#3e3f40"></path><path d="M217 490.4L214 516.6L251 487.3Z" fill="#080a0c" stroke="#080a0c"></path><path d="M377 600L390 514.1L358 600Z" fill="#101213" stroke="#101213"></path><path d="M439 557.3L449 600L466 547.4Z" fill="#38393a" stroke="#38393a"></path><path d="M613 503.3L706 529.3L665 483.1Z" fill="#000000" stroke="#000000"></path><path d="M390 514.1L355 600L358 600Z" fill="#3e3f40" stroke="#3e3f40"></path><path d="M439 600L449 600L439 557.3Z" fill="#1c1d1e" stroke="#1c1d1e"></path><path d="M786 290.9L761 251.3L722 288.9Z" fill="#323334" stroke="#323334"></path><path d="M722 288.9L761 251.3L709 254.9Z" fill="#3e3f40" stroke="#3e3f40"></path><path d="M773 234.3L761 251.3L786 290.9Z" fill="#323334" stroke="#323334"></path><path d="M709 317.1L779 356.1L786 290.9Z" fill="#272829" stroke="#272829"></path><path d="M104 124.3L131 134.4L155 127.9Z" fill="#000000" stroke="#000000"></path><path d="M155 127.9L131 134.4L147 151.6Z" fill="#000000" stroke="#000000"></path><path d="M761 251.3L760 224.4L709 254.9Z" fill="#212223" stroke="#212223"></path><path d="M273 568.1L293 526.3L278 534.4Z" fill="#080a0c" stroke="#080a0c"></path><path d="M245 -49.1L258 16.9L280 18.9Z" fill="#1c1d1e" stroke="#1c1d1e"></path><path d="M258 16.9L229 0L255 78.9Z" fill="#1c1d1e" stroke="#1c1d1e"></path><path d="M245 -49.1L308 2.7L332 0Z" fill="#323334" stroke="#323334"></path><path d="M213 538.1L273 568.1L278 534.4Z" fill="#161718" stroke="#161718"></path><path d="M355 600L390 514.1L293 526.3Z" fill="#3e3f40" stroke="#3e3f40"></path><path d="M273 568.1L355 600L293 526.3Z" fill="#2c2d2e" stroke="#2c2d2e"></path><path d="M98 161.7L97 236L120 175.4Z" fill="#3e3f40" stroke="#3e3f40"></path><path d="M120 175.4L97 236L126 216.1Z" fill="#080a0c" stroke="#080a0c"></path><path d="M122 320.7L62 393.4L123 334.9Z" fill="#080a0c" stroke="#080a0c"></path><path d="M62 393.4L118 428.7L126 376.4Z" fill="#000000" stroke="#000000"></path><path d="M705 72.9L632 65.9L680 99.4Z" fill="#000000" stroke="#000000"></path><path d="M587 0L655 -49.1L547 0Z" fill="#101213" stroke="#101213"></path><path d="M449 600L514 600L466 547.4Z" fill="#3e3f40" stroke="#3e3f40"></path><path d="M730 76.7L680 99.4L726 136.6Z" fill="#2c2d2e" stroke="#2c2d2e"></path><path d="M730 76.7L705 72.9L680 99.4Z" fill="#1c1d1e" stroke="#1c1d1e"></path><path d="M556 600L605 564.3L544 512.3Z" fill="#323334" stroke="#323334"></path><path d="M245 -49.1L229 0L237 0Z" fill="#3e3f40" stroke="#3e3f40"></path><path d="M237 0L229 0L258 16.9Z" fill="#161718" stroke="#161718"></path><path d="M761 251.3L773 234.3L760 224.4Z" fill="#080a0c" stroke="#080a0c"></path><path d="M760 224.4L802 164.1L726 136.6Z" fill="#1c1d1e" stroke="#1c1d1e"></path><path d="M764 393.4L716 350.6L708 374.4Z" fill="#212223" stroke="#212223"></path><path d="M214 516.6L213 538.1L278 534.4Z" fill="#101213" stroke="#101213"></path><path d="M173 518.6L213 538.1L214 516.6Z" fill="#080a0c" stroke="#080a0c"></path><path d="M118 428.7L149 469.4L148 426.3Z" fill="#1c1d1e" stroke="#1c1d1e"></path><path d="M148 426.3L149 469.4L217 431.3Z" fill="#38393a" stroke="#38393a"></path><path d="M514 600L547 600L544 512.3Z" fill="#212223" stroke="#212223"></path><path d="M547 600L556 600L544 512.3Z" fill="#3e3f40" stroke="#3e3f40"></path><path d="M62 393.4L126 376.4L123 334.9Z" fill="#272829" stroke="#272829"></path><path d="M126 376.4L118 428.7L148 426.3Z" fill="#3e3f40" stroke="#3e3f40"></path><path d="M97 130.9L98 161.7L131 134.4Z" fill="#101213" stroke="#101213"></path><path d="M131 134.4L98 161.7L120 175.4Z" fill="#161718" stroke="#161718"></path><path d="M734 479.4L670 462.7L665 483.1Z" fill="#323334" stroke="#323334"></path><path d="M734 479.4L755 414.4L670 462.7Z" fill="#161718" stroke="#161718"></path><path d="M755 414.4L764 393.4L708 374.4Z" fill="#161718" stroke="#161718"></path><path d="M779 356.1L709 317.1L716 350.6Z" fill="#3e3f40" stroke="#3e3f40"></path><path d="M262 636.1L380 625.1L355 600Z" fill="#080a0c" stroke="#080a0c"></path><path d="M355 600L380 625.1L358 600Z" fill="#161718" stroke="#161718"></path><path d="M358 600L380 625.1L377 600Z" fill="#161718" stroke="#161718"></path><path d="M377 600L380 625.1L439 600Z" fill="#3e3f40" stroke="#3e3f40"></path><path d="M439 600L499 650.1L449 600Z" fill="#161718" stroke="#161718"></path><path d="M449 600L499 650.1L514 600Z" fill="#101213" stroke="#101213"></path><path d="M514 600L499 650.1L547 600Z" fill="#101213" stroke="#101213"></path><path d="M547 600L499 650.1L556 600Z" fill="#323334" stroke="#323334"></path><path d="M262 636.1L355 600L273 568.1Z" fill="#161718" stroke="#161718"></path><path d="M801 74.6L730 76.7L726 136.6Z" fill="#323334" stroke="#323334"></path><path d="M705 72.9L680 0L632 65.9Z" fill="#38393a" stroke="#38393a"></path><path d="M764 393.4L779 356.1L716 350.6Z" fill="#000000" stroke="#000000"></path><path d="M149 469.4L173 518.6L217 490.4Z" fill="#212223" stroke="#212223"></path><path d="M230 600L253 600L273 568.1Z" fill="#38393a" stroke="#38393a"></path><path d="M147 517.4L173 518.6L149 469.4Z" fill="#080a0c" stroke="#080a0c"></path><path d="M150 14.7L104 124.3L155 127.9Z" fill="#212223" stroke="#212223"></path><path d="M863 221.3L787 214L773 234.3Z" fill="#212223" stroke="#212223"></path><path d="M773 234.3L787 214L760 224.4Z" fill="#323334" stroke="#323334"></path><path d="M28 140.4L97 130.9L0 93.4Z" fill="#212223" stroke="#212223"></path><path d="M104 124.3L97 130.9L131 134.4Z" fill="#272829" stroke="#272829"></path><path d="M98 161.7L73 161.4L97 236Z" fill="#2c2d2e" stroke="#2c2d2e"></path><path d="M794 415.7L791 364.7L764 393.4Z" fill="#161718" stroke="#161718"></path><path d="M764 393.4L791 364.7L779 356.1Z" fill="#3e3f40" stroke="#3e3f40"></path><path d="M706 529.3L734 479.4L665 483.1Z" fill="#101213" stroke="#101213"></path><path d="M706 529.3L613 503.3L605 564.3Z" fill="#212223" stroke="#212223"></path><path d="M687 0L680 0L705 72.9Z" fill="#101213" stroke="#101213"></path><path d="M631 0L655 -49.1L587 0Z" fill="#272829" stroke="#272829"></path><path d="M779 356.1L829 308L786 290.9Z" fill="#080a0c" stroke="#080a0c"></path><path d="M817 171.7L802 164.1L787 214Z" fill="#000000" stroke="#000000"></path><path d="M794 415.7L764 393.4L755 414.4Z" fill="#1c1d1e" stroke="#1c1d1e"></path><path d="M499 650.1L607 600L556 600Z" fill="#000000" stroke="#000000"></path><path d="M556 600L607 600L605 564.3Z" fill="#101213" stroke="#101213"></path><path d="M486 -38.1L245 -49.1L354 0Z" fill="#212223" stroke="#212223"></path><path d="M229 0L150 14.7L243 96.4Z" fill="#161718" stroke="#161718"></path><path d="M706 0L687 0L705 72.9Z" fill="#161718" stroke="#161718"></path><path d="M680 0L669 -32.1L631 0Z" fill="#1c1d1e" stroke="#1c1d1e"></path><path d="M230 600L273 568.1L213 538.1Z" fill="#1c1d1e" stroke="#1c1d1e"></path><path d="M97 130.9L73 161.4L98 161.7Z" fill="#000000" stroke="#000000"></path><path d="M97 236L54 267.1L125 262Z" fill="#101213" stroke="#101213"></path><path d="M690 584.3L706 529.3L605 564.3Z" fill="#38393a" stroke="#38393a"></path><path d="M109 475.6L147 517.4L149 469.4Z" fill="#080a0c" stroke="#080a0c"></path><path d="M203 613.1L230 600L213 538.1Z" fill="#161718" stroke="#161718"></path><path d="M-1 196.3L54 267.1L97 236Z" fill="#212223" stroke="#212223"></path><path d="M118 428.7L104 463.1L149 469.4Z" fill="#2c2d2e" stroke="#2c2d2e"></path><path d="M777 486.6L752 475.7L734 479.4Z" fill="#3e3f40" stroke="#3e3f40"></path><path d="M734 479.4L752 475.7L755 414.4Z" fill="#272829" stroke="#272829"></path><path d="M57 398.7L104 463.1L118 428.7Z" fill="#272829" stroke="#272829"></path><path d="M104 463.1L109 475.6L149 469.4Z" fill="#1c1d1e" stroke="#1c1d1e"></path><path d="M143 0L150 14.7L229 0Z" fill="#1c1d1e" stroke="#1c1d1e"></path><path d="M97 130.9L28 140.4L73 161.4Z" fill="#323334" stroke="#323334"></path><path d="M262 636.1L499 650.1L380 625.1Z" fill="#3e3f40" stroke="#3e3f40"></path><path d="M380 625.1L499 650.1L439 600Z" fill="#3e3f40" stroke="#3e3f40"></path><path d="M154 575.1L213 538.1L173 518.6Z" fill="#3e3f40" stroke="#3e3f40"></path><path d="M253 600L262 636.1L273 568.1Z" fill="#3e3f40" stroke="#3e3f40"></path><path d="M787 214L802 164.1L760 224.4Z" fill="#272829" stroke="#272829"></path><path d="M731 12.7L706 0L705 72.9Z" fill="#1c1d1e" stroke="#1c1d1e"></path><path d="M817 171.7L787 214L827 173.1Z" fill="#38393a" stroke="#38393a"></path><path d="M706 0L669 -32.1L687 0Z" fill="#3e3f40" stroke="#3e3f40"></path><path d="M687 0L669 -32.1L680 0Z" fill="#2c2d2e" stroke="#2c2d2e"></path><path d="M486 -38.1L655 -49.1L245 -49.1Z" fill="#3e3f40" stroke="#3e3f40"></path><path d="M745 36.7L705 72.9L730 76.7Z" fill="#212223" stroke="#212223"></path><path d="M777 486.6L770 463.6L752 475.7Z" fill="#101213" stroke="#101213"></path><path d="M752 475.7L770 463.6L755 414.4Z" fill="#2c2d2e" stroke="#2c2d2e"></path><path d="M0 344.7L62 393.4L122 320.7Z" fill="#1c1d1e" stroke="#1c1d1e"></path><path d="M104 463.1L75 497.3L109 475.6Z" fill="#000000" stroke="#000000"></path><path d="M770 463.6L794 415.7L755 414.4Z" fill="#1c1d1e" stroke="#1c1d1e"></path><path d="M863 221.3L773 234.3L786 290.9Z" fill="#161718" stroke="#161718"></path><path d="M757 -49.1L655 -49.1L669 -32.1Z" fill="#3e3f40" stroke="#3e3f40"></path><path d="M669 -32.1L655 -49.1L631 0Z" fill="#3e3f40" stroke="#3e3f40"></path><path d="M801 74.6L745 36.7L730 76.7Z" fill="#161718" stroke="#161718"></path><path d="M706 0L757 -49.1L669 -32.1Z" fill="#101213" stroke="#101213"></path><path d="M0 344.7L57 398.7L62 393.4Z" fill="#2c2d2e" stroke="#2c2d2e"></path><path d="M62 393.4L57 398.7L118 428.7Z" fill="#3e3f40" stroke="#3e3f40"></path><path d="M745 36.7L731 12.7L705 72.9Z" fill="#272829" stroke="#272829"></path><path d="M245 -49.1L143 0L229 0Z" fill="#161718" stroke="#161718"></path><path d="M150 14.7L114 0L104 124.3Z" fill="#1c1d1e" stroke="#1c1d1e"></path><path d="M829 308L779 356.1L791 364.7Z" fill="#212223" stroke="#212223"></path><path d="M801 74.6L756 11.7L745 36.7Z" fill="#3e3f40" stroke="#3e3f40"></path><path d="M856 388.7L829 308L791 364.7Z" fill="#3e3f40" stroke="#3e3f40"></path><path d="M203 613.1L262 636.1L230 600Z" fill="#161718" stroke="#161718"></path><path d="M230 600L262 636.1L253 600Z" fill="#080a0c" stroke="#080a0c"></path><path d="M607 600L690 584.3L605 564.3Z" fill="#212223" stroke="#212223"></path><path d="M706 529.3L777 486.6L734 479.4Z" fill="#1c1d1e" stroke="#1c1d1e"></path><path d="M729 600L690 584.3L607 600Z" fill="#2c2d2e" stroke="#2c2d2e"></path><path d="M75 497.3L135 548.3L147 517.4Z" fill="#323334" stroke="#323334"></path><path d="M147 517.4L135 548.3L173 518.6Z" fill="#38393a" stroke="#38393a"></path><path d="M75 497.3L147 517.4L109 475.6Z" fill="#080a0c" stroke="#080a0c"></path><path d="M770 463.6L813 445.6L794 415.7Z" fill="#272829" stroke="#272829"></path><path d="M794 415.7L838 408.9L791 364.7Z" fill="#161718" stroke="#161718"></path><path d="M818 516.1L777 486.6L820 540.1Z" fill="#1c1d1e" stroke="#1c1d1e"></path><path d="M846 186.3L827 173.1L787 214Z" fill="#212223" stroke="#212223"></path><path d="M817 171.7L822 120.4L802 164.1Z" fill="#3e3f40" stroke="#3e3f40"></path><path d="M745 36.7L756 11.7L731 12.7Z" fill="#101213" stroke="#101213"></path><path d="M154 575.1L203 613.1L213 538.1Z" fill="#080a0c" stroke="#080a0c"></path><path d="M135 548.3L154 575.1L173 518.6Z" fill="#101213" stroke="#101213"></path><path d="M822 120.4L726 136.6L802 164.1Z" fill="#000000" stroke="#000000"></path><path d="M731 12.7L757 -49.1L706 0Z" fill="#38393a" stroke="#38393a"></path><path d="M38 -50.1L114 0L143 0Z" fill="#161718" stroke="#161718"></path><path d="M143 0L114 0L150 14.7Z" fill="#323334" stroke="#323334"></path><path d="M777 486.6L813 445.6L770 463.6Z" fill="#38393a" stroke="#38393a"></path><path d="M827 173.1L822 120.4L817 171.7Z" fill="#1c1d1e" stroke="#1c1d1e"></path><path d="M810 86.6L801 74.6L726 136.6Z" fill="#272829" stroke="#272829"></path><path d="M822 120.4L810 86.6L726 136.6Z" fill="#101213" stroke="#101213"></path><path d="M801 74.6L813 0L756 11.7Z" fill="#1c1d1e" stroke="#1c1d1e"></path><path d="M67 498.4L75 497.3L104 463.1Z" fill="#101213" stroke="#101213"></path><path d="M135 548.3L147 592.3L154 575.1Z" fill="#161718" stroke="#161718"></path><path d="M863 221.3L846 186.3L787 214Z" fill="#212223" stroke="#212223"></path><path d="M827 173.1L900 157.6L822 120.4Z" fill="#323334" stroke="#323334"></path><path d="M833 74.4L825 64.6L810 86.6Z" fill="#212223" stroke="#212223"></path><path d="M863 221.3L786 290.9L829 308Z" fill="#1c1d1e" stroke="#1c1d1e"></path><path d="M0 93.4L97 130.9L14 52.7Z" fill="#161718" stroke="#161718"></path><path d="M73 161.4L-1 196.3L97 236Z" fill="#161718" stroke="#161718"></path><path d="M54 267.1L0 344.7L122 320.7Z" fill="#080a0c" stroke="#080a0c"></path><path d="M146 600L147 592.3L143 600Z" fill="#272829" stroke="#272829"></path><path d="M154 575.1L147 592.3L203 613.1Z" fill="#080a0c" stroke="#080a0c"></path><path d="M203 613.1L0 628.1L262 636.1Z" fill="#161718" stroke="#161718"></path><path d="M813 445.6L838 408.9L794 415.7Z" fill="#000000" stroke="#000000"></path><path d="M57 398.7L67 498.4L104 463.1Z" fill="#3e3f40" stroke="#3e3f40"></path><path d="M75 497.3L53 600L135 548.3Z" fill="#2c2d2e" stroke="#2c2d2e"></path><path d="M0 420.9L67 498.4L57 398.7Z" fill="#212223" stroke="#212223"></path><path d="M52 -18.1L97 0L38 -50.1Z" fill="#38393a" stroke="#38393a"></path><path d="M114 0L97 0L104 124.3Z" fill="#272829" stroke="#272829"></path><path d="M-1 196.3L0 276.1L54 267.1Z" fill="#3e3f40" stroke="#3e3f40"></path><path d="M0 276.1L0 280L54 267.1Z" fill="#212223" stroke="#212223"></path><path d="M879 222L863 221.3L900 243Z" fill="#000000" stroke="#000000"></path><path d="M834 78.9L810 86.6L822 120.4Z" fill="#080a0c" stroke="#080a0c"></path><path d="M143 600L147 592.3L138 600Z" fill="#323334" stroke="#323334"></path><path d="M147 592.3L146 600L203 613.1Z" fill="#1c1d1e" stroke="#1c1d1e"></path><path d="M138 600L147 592.3L135 548.3Z" fill="#161718" stroke="#161718"></path><path d="M146 600L143 600L203 613.1Z" fill="#080a0c" stroke="#080a0c"></path><path d="M-9 309.9L0 344.7L54 267.1Z" fill="#1c1d1e" stroke="#1c1d1e"></path><path d="M0 147.3L-1 196.3L28 140.4Z" fill="#2c2d2e" stroke="#2c2d2e"></path><path d="M28 140.4L-1 196.3L73 161.4Z" fill="#3e3f40" stroke="#3e3f40"></path><path d="M0 276.1L-9 309.9L0 280Z" fill="#272829" stroke="#272829"></path><path d="M0 280L-9 309.9L54 267.1Z" fill="#3e3f40" stroke="#3e3f40"></path><path d="M863 435.4L856 388.7L838 408.9Z" fill="#212223" stroke="#212223"></path><path d="M838 408.9L856 388.7L791 364.7Z" fill="#080a0c" stroke="#080a0c"></path><path d="M53 600L138 600L135 548.3Z" fill="#161718" stroke="#161718"></path><path d="M143 600L138 600L203 613.1Z" fill="#1c1d1e" stroke="#1c1d1e"></path><path d="M499 650.1L729 600L607 600Z" fill="#323334" stroke="#323334"></path><path d="M690 584.3L729 600L706 529.3Z" fill="#272829" stroke="#272829"></path><path d="M777 486.6L818 516.1L813 445.6Z" fill="#161718" stroke="#161718"></path><path d="M813 445.6L863 435.4L838 408.9Z" fill="#212223" stroke="#212223"></path><path d="M-1 196.3L-9 309.9L0 276.1Z" fill="#000000" stroke="#000000"></path><path d="M834 78.9L822 120.4L900 127.7Z" fill="#323334" stroke="#323334"></path><path d="M810 86.6L825 64.6L801 74.6Z" fill="#000000" stroke="#000000"></path><path d="M900 157.6L827 173.1L846 186.3Z" fill="#161718" stroke="#161718"></path><path d="M834 78.9L833 74.4L810 86.6Z" fill="#101213" stroke="#101213"></path><path d="M52 -18.1L74 1.7L97 0Z" fill="#38393a" stroke="#38393a"></path><path d="M97 0L74 1.7L104 124.3Z" fill="#272829" stroke="#272829"></path><path d="M0 125.7L0 147.3L28 140.4Z" fill="#161718" stroke="#161718"></path><path d="M-1 196.3L-46 42.6L-9 309.9Z" fill="#212223" stroke="#212223"></path><path d="M900 273.3L863 221.3L829 308Z" fill="#272829" stroke="#272829"></path><path d="M863 221.3L879 222L846 186.3Z" fill="#000000" stroke="#000000"></path><path d="M900 0L887 0L833 74.4Z" fill="#101213" stroke="#101213"></path><path d="M0 93.4L0 125.7L28 140.4Z" fill="#212223" stroke="#212223"></path><path d="M0 147.3L-46 42.6L-1 196.3Z" fill="#101213" stroke="#101213"></path><path d="M0 344.7L0 420.9L57 398.7Z" fill="#161718" stroke="#161718"></path><path d="M67 498.4L53 600L75 497.3Z" fill="#161718" stroke="#161718"></path><path d="M-9 309.9L0 420.9L0 344.7Z" fill="#2c2d2e" stroke="#2c2d2e"></path><path d="M820 540.1L777 486.6L706 529.3Z" fill="#212223" stroke="#212223"></path><path d="M813 0L757 -49.1L756 11.7Z" fill="#3e3f40" stroke="#3e3f40"></path><path d="M756 11.7L757 -49.1L731 12.7Z" fill="#1c1d1e" stroke="#1c1d1e"></path><path d="M813 0L801 74.6L825 64.6Z" fill="#101213" stroke="#101213"></path><path d="M800 604.1L754 600L729 600Z" fill="#080a0c" stroke="#080a0c"></path><path d="M729 600L754 600L706 529.3Z" fill="#38393a" stroke="#38393a"></path><path d="M818 516.1L863 435.4L813 445.6Z" fill="#000000" stroke="#000000"></path><path d="M900 319.9L900 273.3L829 308Z" fill="#272829" stroke="#272829"></path><path d="M0 420.9L29 505.6L67 498.4Z" fill="#3e3f40" stroke="#3e3f40"></path><path d="M14 52.7L97 130.9L104 124.3Z" fill="#212223" stroke="#212223"></path><path d="M0 125.7L-46 42.6L0 147.3Z" fill="#1c1d1e" stroke="#1c1d1e"></path><path d="M900 319.9L829 308L900 324.1Z" fill="#000000" stroke="#000000"></path><path d="M879 222L900 212.4L846 186.3Z" fill="#161718" stroke="#161718"></path><path d="M887 0L825 64.6L833 74.4Z" fill="#161718" stroke="#161718"></path><path d="M887 0L813 0L825 64.6Z" fill="#000000" stroke="#000000"></path><path d="M900 273.3L900 243L863 221.3Z" fill="#323334" stroke="#323334"></path><path d="M900 324.1L829 308L900 354.6Z" fill="#080a0c" stroke="#080a0c"></path><path d="M900 354.6L829 308L856 388.7Z" fill="#2c2d2e" stroke="#2c2d2e"></path><path d="M907 477.6L900 429.3L863 435.4Z" fill="#212223" stroke="#212223"></path><path d="M754 600L820 540.1L706 529.3Z" fill="#3e3f40" stroke="#3e3f40"></path><path d="M900 243L900 212.4L879 222Z" fill="#2c2d2e" stroke="#2c2d2e"></path><path d="M74 1.7L14 52.7L104 124.3Z" fill="#272829" stroke="#272829"></path><path d="M800 604.1L773 600L754 600Z" fill="#3e3f40" stroke="#3e3f40"></path><path d="M754 600L773 600L820 540.1Z" fill="#2c2d2e" stroke="#2c2d2e"></path><path d="M900 356.7L900 354.6L856 388.7Z" fill="#272829" stroke="#272829"></path><path d="M900 356.7L856 388.7L900 429.3Z" fill="#2c2d2e" stroke="#2c2d2e"></path><path d="M900 429.3L856 388.7L863 435.4Z" fill="#3e3f40" stroke="#3e3f40"></path><path d="M38 -50.1L97 0L114 0Z" fill="#161718" stroke="#161718"></path><path d="M74 1.7L13 0L14 52.7Z" fill="#38393a" stroke="#38393a"></path><path d="M-46 42.6L0 63.6L14 52.7Z" fill="#2c2d2e" stroke="#2c2d2e"></path><path d="M14 52.7L0 63.6L0 93.4Z" fill="#101213" stroke="#101213"></path><path d="M0 93.4L-46 42.6L0 125.7Z" fill="#272829" stroke="#272829"></path><path d="M900 212.4L900 157.6L846 186.3Z" fill="#38393a" stroke="#38393a"></path><path d="M900 157.6L900 127.7L822 120.4Z" fill="#161718" stroke="#161718"></path><path d="M-9 309.9L0 511.6L0 420.9Z" fill="#2c2d2e" stroke="#2c2d2e"></path><path d="M0 420.9L0 511.6L29 505.6Z" fill="#101213" stroke="#101213"></path><path d="M29 505.6L53 600L67 498.4Z" fill="#000000" stroke="#000000"></path><path d="M907 477.6L863 435.4L818 516.1Z" fill="#101213" stroke="#101213"></path><path d="M800 604.1L802 600L773 600Z" fill="#272829" stroke="#272829"></path><path d="M773 600L802 600L820 540.1Z" fill="#000000" stroke="#000000"></path><path d="M906 504.1L907 477.6L818 516.1Z" fill="#101213" stroke="#101213"></path><path d="M499 650.1L800 604.1L729 600Z" fill="#212223" stroke="#212223"></path><path d="M906 504.1L818 516.1L898 528.4Z" fill="#38393a" stroke="#38393a"></path><path d="M52 -18.1L13 0L74 1.7Z" fill="#323334" stroke="#323334"></path><path d="M0 534.4L53 600L29 505.6Z" fill="#000000" stroke="#000000"></path><path d="M138 600L0 628.1L203 613.1Z" fill="#080a0c" stroke="#080a0c"></path><path d="M900 429.3L936 285.9L900 356.7Z" fill="#2c2d2e" stroke="#2c2d2e"></path><path d="M900 356.7L936 285.9L900 354.6Z" fill="#38393a" stroke="#38393a"></path><path d="M900 354.6L936 285.9L900 324.1Z" fill="#000000" stroke="#000000"></path><path d="M900 324.1L936 285.9L900 319.9Z" fill="#161718" stroke="#161718"></path><path d="M900 319.9L936 285.9L900 273.3Z" fill="#080a0c" stroke="#080a0c"></path><path d="M900 273.3L936 285.9L900 243Z" fill="#38393a" stroke="#38393a"></path><path d="M900 243L936 285.9L900 212.4Z" fill="#323334" stroke="#323334"></path><path d="M900 212.4L936 285.9L900 157.6Z" fill="#080a0c" stroke="#080a0c"></path><path d="M900 157.6L936 285.9L900 127.7Z" fill="#101213" stroke="#101213"></path><path d="M-9 309.9L0 534.4L0 511.6Z" fill="#323334" stroke="#323334"></path><path d="M0 511.6L0 534.4L29 505.6Z" fill="#212223" stroke="#212223"></path><path d="M655 -49.1L38 -50.1L245 -49.1Z" fill="#2c2d2e" stroke="#2c2d2e"></path><path d="M245 -49.1L38 -50.1L143 0Z" fill="#38393a" stroke="#38393a"></path><path d="M52 -18.1L38 -50.1L13 0Z" fill="#1c1d1e" stroke="#1c1d1e"></path><path d="M757 -49.1L38 -50.1L655 -49.1Z" fill="#323334" stroke="#323334"></path><path d="M0 580.3L48 607.3L53 600Z" fill="#38393a" stroke="#38393a"></path><path d="M53 600L48 607.3L138 600Z" fill="#000000" stroke="#000000"></path><path d="M0 -11.1L0 0L13 0Z" fill="#38393a" stroke="#38393a"></path><path d="M13 0L0 0L14 52.7Z" fill="#323334" stroke="#323334"></path><path d="M0 63.6L-46 42.6L0 93.4Z" fill="#3e3f40" stroke="#3e3f40"></path><path d="M38 -50.1L0 -11.1L13 0Z" fill="#38393a" stroke="#38393a"></path><path d="M0 0L-46 42.6L14 52.7Z" fill="#161718" stroke="#161718"></path><path d="M818 516.1L820 540.1L898 528.4Z" fill="#1c1d1e" stroke="#1c1d1e"></path><path d="M900 429.3L939 538.3L936 285.9Z" fill="#272829" stroke="#272829"></path><path d="M898 528.4L820 540.1L900 535.4Z" fill="#101213" stroke="#101213"></path><path d="M907 477.6L939 538.3L900 429.3Z" fill="#101213" stroke="#101213"></path><path d="M0 -11.1L-46 42.6L0 0Z" fill="#161718" stroke="#161718"></path><path d="M-9 309.9L-46 42.6L0 534.4Z" fill="#161718" stroke="#161718"></path><path d="M-46 42.6L0 580.3L0 534.4Z" fill="#080a0c" stroke="#080a0c"></path><path d="M0 534.4L0 580.3L53 600Z" fill="#101213" stroke="#101213"></path><path d="M900 0L834 78.9L900 127.7Z" fill="#000000" stroke="#000000"></path><path d="M900 0L833 74.4L834 78.9Z" fill="#323334" stroke="#323334"></path><path d="M813 0L900 -41.1L757 -49.1Z" fill="#080a0c" stroke="#080a0c"></path><path d="M900 535.4L820 540.1L890 577.3Z" fill="#38393a" stroke="#38393a"></path><path d="M890 577.3L820 540.1L802 600Z" fill="#2c2d2e" stroke="#2c2d2e"></path><path d="M898 528.4L939 538.3L906 504.1Z" fill="#323334" stroke="#323334"></path><path d="M936 285.9L900 0L900 127.7Z" fill="#2c2d2e" stroke="#2c2d2e"></path><path d="M887 0L900 -41.1L813 0Z" fill="#2c2d2e" stroke="#2c2d2e"></path><path d="M-46 42.6L0 600L0 580.3Z" fill="#212223" stroke="#212223"></path><path d="M0 580.3L0 600L48 607.3Z" fill="#323334" stroke="#323334"></path><path d="M900 600L890 577.3L802 600Z" fill="#080a0c" stroke="#080a0c"></path><path d="M890 577.3L900 568.1L900 535.4Z" fill="#161718" stroke="#161718"></path><path d="M900 535.4L939 538.3L898 528.4Z" fill="#2c2d2e" stroke="#2c2d2e"></path><path d="M906 504.1L939 538.3L907 477.6Z" fill="#101213" stroke="#101213"></path><path d="M0 600L0 628.1L48 607.3Z" fill="#38393a" stroke="#38393a"></path><path d="M48 607.3L0 628.1L138 600Z" fill="#38393a" stroke="#38393a"></path><path d="M262 636.1L0 628.1L499 650.1Z" fill="#161718" stroke="#161718"></path><path d="M-46 42.6L0 628.1L0 600Z" fill="#38393a" stroke="#38393a"></path><path d="M936 285.9L900 -41.1L900 0Z" fill="#212223" stroke="#212223"></path><path d="M900 0L900 -41.1L887 0Z" fill="#272829" stroke="#272829"></path><path d="M800 604.1L900 600L802 600Z" fill="#101213" stroke="#101213"></path><path d="M890 577.3L900 600L900 568.1Z" fill="#38393a" stroke="#38393a"></path><path d="M900 568.1L939 538.3L900 535.4Z" fill="#323334" stroke="#323334"></path><path d="M499 650.1L900 600L800 604.1Z" fill="#323334" stroke="#323334"></path><path d="M900 600L939 538.3L900 568.1Z" fill="#000000" stroke="#000000"></path></g></svg>