<svg id="visual" viewBox="0 0 900 600" width="900" height="600" xmlns="http://www.w3.org/2000/svg" xmlns:xlink="http://www.w3.org/1999/xlink" version="1.1"><path d="M0 205L82 85L164 217L245 175L327 247L409 97L491 193L573 241L655 163L736 103L818 193L900 115L900 0L818 0L736 0L655 0L573 0L491 0L409 0L327 0L245 0L164 0L82 0L0 0Z" fill="#959595"></path><path d="M0 325L82 169L164 289L245 277L327 325L409 199L491 289L573 283L655 283L736 217L818 289L900 187L900 113L818 191L736 101L655 161L573 239L491 191L409 95L327 245L245 173L164 215L82 83L0 203Z" fill="#6e6e6e"></path><path d="M0 415L82 373L164 391L245 391L327 409L409 439L491 397L573 397L655 385L736 415L818 457L900 445L900 185L818 287L736 215L655 281L573 281L491 287L409 197L327 323L245 275L164 287L82 167L0 323Z" fill="#494949"></path><path d="M0 457L82 451L164 493L245 487L327 493L409 487L491 499L573 439L655 463L736 463L818 553L900 523L900 443L818 455L736 413L655 383L573 395L491 395L409 437L327 407L245 389L164 389L82 371L0 413Z" fill="#272727"></path><path d="M0 601L82 601L164 601L245 601L327 601L409 601L491 601L573 601L655 601L736 601L818 601L900 601L900 521L818 551L736 461L655 461L573 437L491 497L409 485L327 491L245 485L164 491L82 449L0 455Z" fill="#000000"></path></svg>